<svg xmlns="http://www.w3.org/2000/svg" viewBox="0 0 500 500"><g id="freepik--background-complete--inject-15"><rect y="382.4" width="500" height="0.25" style="fill:#ebebeb"></rect><rect x="78.54" y="390.79" width="33.12" height="0.25" style="fill:#ebebeb"></rect><rect x="133.33" y="398" width="30.17" height="0.25" style="fill:#ebebeb"></rect><rect x="56.85" y="400.07" width="38.25" height="0.25" style="fill:#ebebeb"></rect><rect x="434" y="399.53" width="15.9" height="0.25" style="fill:#ebebeb"></rect><rect x="391.47" y="399.53" width="39.32" height="0.25" style="fill:#ebebeb"></rect><rect x="250" y="390.66" width="30.33" height="0.25" style="fill:#ebebeb"></rect><rect x="284.67" y="390.66" width="72.1" height="0.25" style="fill:#ebebeb"></rect><path d="M237,337.8H43.91a5.71,5.71,0,0,1-5.7-5.71V60.66A5.71,5.71,0,0,1,43.91,55H237a5.71,5.71,0,0,1,5.71,5.71V332.09A5.71,5.71,0,0,1,237,337.8ZM43.91,55.2a5.46,5.46,0,0,0-5.45,5.46V332.09a5.46,5.46,0,0,0,5.45,5.46H237a5.47,5.47,0,0,0,5.46-5.46V60.66A5.47,5.47,0,0,0,237,55.2Z" style="fill:#ebebeb"></path><path d="M453.31,337.8H260.21a5.72,5.72,0,0,1-5.71-5.71V60.66A5.72,5.72,0,0,1,260.21,55h193.1A5.71,5.71,0,0,1,459,60.66V332.09A5.71,5.71,0,0,1,453.31,337.8ZM260.21,55.2a5.47,5.47,0,0,0-5.46,5.46V332.09a5.47,5.47,0,0,0,5.46,5.46h193.1a5.47,5.47,0,0,0,5.46-5.46V60.66a5.47,5.47,0,0,0-5.46-5.46Z" style="fill:#ebebeb"></path><path d="M239.25,216.87c2-3.33,7.24-6,11.74-6a8.31,8.31,0,0,1,2.8.44,19.18,19.18,0,0,1,11.32-4.12c4.72,0,7.21,2.46,6.25,5.75,4.32.21,6.21,3,4.23,6.3s-7.55,6.31-12.24,6.31H236.27c-3.33,0-4.85-2-3.38-4.48A10.48,10.48,0,0,1,239.25,216.87Z" style="fill:#fff"></path><rect x="354.82" y="166.51" width="30.86" height="215.89" transform="translate(740.49 548.9) rotate(180)" style="fill:#e6e6e6"></rect><polygon points="330.43 382.4 358.28 382.4 358.28 209.85 330.43 251.92 330.43 382.4" style="fill:#e6e6e6"></polygon><rect x="395.2" y="237.82" width="30.86" height="144.58" transform="translate(821.25 620.22) rotate(180)" style="fill:#e6e6e6"></rect><rect x="305.82" y="219.79" width="15.73" height="162.6" transform="translate(627.37 602.19) rotate(180)" style="fill:#e6e6e6"></rect><rect x="283.39" y="261.33" width="15.73" height="121.07" transform="translate(582.51 643.72) rotate(180)" style="fill:#e6e6e6"></rect><rect x="271.5" y="301.1" width="15.73" height="81.3" transform="translate(558.73 683.49) rotate(180)" style="fill:#e6e6e6"></rect><rect x="206.21" y="301.1" width="15.73" height="81.3" transform="translate(428.16 683.49) rotate(180)" style="fill:#e6e6e6"></rect><rect x="221.27" y="326.76" width="15.73" height="55.64" transform="translate(458.26 709.16) rotate(180)" style="fill:#e6e6e6"></rect><rect x="430.38" y="301.1" width="15.73" height="81.3" transform="translate(876.49 683.49) rotate(180)" style="fill:#e6e6e6"></rect><rect x="294.68" y="287.58" width="142.4" height="94.82" transform="translate(731.76 669.98) rotate(180)" style="fill:#e6e6e6"></rect><rect x="206.21" y="344.39" width="142.4" height="38.01" transform="translate(554.83 726.79) rotate(180)" style="fill:#e6e6e6"></rect><rect x="143.12" y="202.66" width="49.13" height="179.74" style="fill:#f0f0f0"></rect><polygon points="231.08 382.4 186.74 382.4 186.74 238.74 231.08 273.77 231.08 382.4" style="fill:#f0f0f0"></polygon><rect x="78.84" y="247.03" width="49.13" height="135.37" style="fill:#f0f0f0"></rect><rect x="245.22" y="247.03" width="25.04" height="135.37" style="fill:#f0f0f0"></rect><rect x="280.92" y="292.07" width="25.04" height="90.33" style="fill:#f0f0f0"></rect><rect x="299.86" y="314.71" width="25.04" height="67.69" style="fill:#f0f0f0"></rect><rect x="403.8" y="314.71" width="25.04" height="67.69" style="fill:#f0f0f0"></rect><rect x="379.83" y="336.08" width="25.04" height="46.32" style="fill:#f0f0f0"></rect><rect x="46.91" y="314.71" width="25.04" height="67.69" style="fill:#f0f0f0"></rect><rect x="61.28" y="278.15" width="226.71" height="104.25" style="fill:#f0f0f0"></rect><rect x="202.13" y="350.76" width="226.71" height="31.64" style="fill:#f0f0f0"></rect><path d="M473.92,82.8a24.31,24.31,0,0,0-37.45-20.46,39.43,39.43,0,0,0-54.94-12.79,18,18,0,0,0-27.7,6.54C352.9,56,352,56,351,56a34.56,34.56,0,0,0-19.92,6.3,26.39,26.39,0,0,0-43.57-4.92,30,30,0,0,0-37.38-.89,30,30,0,0,0-54.88-14.61,29.51,29.51,0,0,0-6.56-.73,30,30,0,0,0-22.5,10.14,34.65,34.65,0,0,0-43.67,7.66,39.44,39.44,0,0,0-47.38-2.4,17.94,17.94,0,0,0-29.29,8.79,24.32,24.32,0,1,0,17.66,44.36,39.45,39.45,0,0,0,54.94,12.79,17.95,17.95,0,0,0,27.7-6.55c.93.08,1.86.13,2.81.13a34.56,34.56,0,0,0,19.92-6.3,26.41,26.41,0,0,0,43.57,4.92,30,30,0,0,0,13.62,6.44,26.41,26.41,0,0,0,49.42-11.53,30,30,0,0,0,18-12.84A26.38,26.38,0,0,0,317.36,99a34.67,34.67,0,0,0,60.1,14.09,39.46,39.46,0,0,0,47.38,2.39,17.94,17.94,0,0,0,29.29-8.78A24.33,24.33,0,0,0,473.92,82.8Z" style="fill:#f0f0f0"></path></g><g id="freepik--Shadow--inject-15"><ellipse id="freepik--path--inject-15" cx="250" cy="416.24" rx="193.89" ry="11.32" style="fill:#f5f5f5"></ellipse></g><g id="freepik--Rain--inject-15"><g style="opacity:0.30000000000000004"><path d="M30.07,294.53H30a.42.42,0,0,1-.3-.52c2-7.53,3.79-14.53,5.5-21.39a.41.41,0,0,1,.51-.31.43.43,0,0,1,.31.51c-1.71,6.87-3.51,13.87-5.51,21.41A.41.41,0,0,1,30.07,294.53Z" style="fill:#407BFF"></path><path d="M40.06,216.05H40a.42.42,0,0,1-.32-.5c1.3-5.74,2.8-11.74,4.58-18.35a.42.42,0,0,1,.52-.3.42.42,0,0,1,.3.52c-1.78,6.6-3.27,12.59-4.57,18.31A.43.43,0,0,1,40.06,216.05Z" style="fill:#407BFF"></path><path d="M30.53,175.61h-.12a.43.43,0,0,1-.29-.53c.76-2.61,1.52-5.23,2.29-7.84a.43.43,0,0,1,.53-.29.42.42,0,0,1,.28.53q-1.15,3.92-2.29,7.84A.42.42,0,0,1,30.53,175.61Z" style="fill:#407BFF"></path><path d="M27.44,134.36l-.12,0a.44.44,0,0,1-.29-.53c3.71-12.5,7.59-25.84,10.75-39.38a.43.43,0,0,1,.51-.32.42.42,0,0,1,.31.51c-3.16,13.56-7,26.92-10.75,39.43A.44.44,0,0,1,27.44,134.36Z" style="fill:#407BFF"></path><path d="M75.7,106.47h-.11a.43.43,0,0,1-.3-.52l1.63-6.06a.41.41,0,0,1,.51-.29.41.41,0,0,1,.3.51l-1.62,6.06A.42.42,0,0,1,75.7,106.47Z" style="fill:#407BFF"></path><path d="M59.18,71.62h-.11a.43.43,0,0,1-.3-.52l2.51-9.42a.42.42,0,0,1,.82.22l-2.51,9.42A.42.42,0,0,1,59.18,71.62Z" style="fill:#407BFF"></path><path d="M69.39,33.54a.23.23,0,0,1-.11,0A.41.41,0,0,1,69,33q2.54-9.08,5-18.17a.42.42,0,1,1,.81.22q-2.49,9.11-5,18.18A.42.42,0,0,1,69.39,33.54Z" style="fill:#407BFF"></path><path d="M41.19,407.75h-.11a.42.42,0,0,1-.3-.52q2.09-7.74,4.19-15.47a.42.42,0,0,1,.52-.3.43.43,0,0,1,.3.52q-2.1,7.74-4.19,15.47A.42.42,0,0,1,41.19,407.75Z" style="fill:#407BFF"></path><path d="M32.63,355.68a.25.25,0,0,1-.12,0,.42.42,0,0,1-.29-.51q2.93-10.74,5.88-21.48a.43.43,0,0,1,.82.23Q36,344.63,33,355.37A.41.41,0,0,1,32.63,355.68Z" style="fill:#407BFF"></path><path d="M59.16,342l-.12,0a.42.42,0,0,1-.29-.52l4.41-16.07a.42.42,0,0,1,.82.22l-4.42,16.07A.42.42,0,0,1,59.16,342Z" style="fill:#407BFF"></path><path d="M105.3,323.9l-.11,0a.43.43,0,0,1-.3-.52l1.65-6a.42.42,0,0,1,.52-.29.41.41,0,0,1,.29.52l-1.64,6A.42.42,0,0,1,105.3,323.9Z" style="fill:#407BFF"></path><path d="M92.7,280.39l-.11,0a.41.41,0,0,1-.29-.51q2.73-10.11,5.43-20.21a.42.42,0,0,1,.52-.3.43.43,0,0,1,.3.52q-2.7,10.11-5.44,20.21A.42.42,0,0,1,92.7,280.39Z" style="fill:#407BFF"></path><path d="M95.42,223.62l-.11,0a.43.43,0,0,1-.3-.52Q96.35,218,97.66,213a.42.42,0,0,1,.82.22q-1.32,5.06-2.65,10.12A.43.43,0,0,1,95.42,223.62Z" style="fill:#407BFF"></path><path d="M62.15,238H62a.44.44,0,0,1-.3-.53l2.84-10.07a.43.43,0,0,1,.82.23l-2.84,10.07A.42.42,0,0,1,62.15,238Z" style="fill:#407BFF"></path><path d="M118,179.06l-.12,0a.43.43,0,0,1-.28-.53c.47-1.55.94-3.11,1.4-4.66a.43.43,0,0,1,.53-.29.42.42,0,0,1,.28.53c-.46,1.56-.93,3.11-1.4,4.67A.43.43,0,0,1,118,179.06Z" style="fill:#407BFF"></path><path d="M113.56,161.08h-.11a.43.43,0,0,1-.3-.52q.81-2.94,1.59-5.86a.43.43,0,0,1,.52-.3.41.41,0,0,1,.3.51c-.52,2-1.06,3.92-1.59,5.87A.44.44,0,0,1,113.56,161.08Z" style="fill:#407BFF"></path><path d="M128.43,141.5h-.11a.42.42,0,0,1-.3-.52q1.71-6.65,3.39-13.32a.43.43,0,0,1,.52-.3.42.42,0,0,1,.3.51c-1.12,4.44-2.25,8.89-3.39,13.32A.42.42,0,0,1,128.43,141.5Z" style="fill:#407BFF"></path><path d="M106.12,122.82H106a.43.43,0,0,1-.31-.52q.95-3.66,1.9-7.32a.42.42,0,0,1,.82.22q-1,3.65-1.9,7.32A.41.41,0,0,1,106.12,122.82Z" style="fill:#407BFF"></path><path d="M139.76,95.7h-.11a.42.42,0,0,1-.3-.52c1.92-6.94,3.74-13.2,5.58-19.15a.42.42,0,0,1,.8.24c-1.83,5.95-3.65,12.21-5.56,19.13A.42.42,0,0,1,139.76,95.7Z" style="fill:#407BFF"></path><path d="M139.27,48.41h-.1a.43.43,0,0,1-.31-.51c2-8.66,4.22-17.3,6.55-25.69a.43.43,0,0,1,.82.23c-2.33,8.37-4.53,17-6.55,25.65A.42.42,0,0,1,139.27,48.41Z" style="fill:#407BFF"></path><path d="M86,365.48h-.09a.42.42,0,0,1-.33-.5c.64-3.1,1.48-6.43,2.59-10.15a.42.42,0,1,1,.81.24c-1.1,3.7-1.94,7-2.57,10.08A.43.43,0,0,1,86,365.48Z" style="fill:#407BFF"></path><path d="M119.24,393.8l-.13,0a.42.42,0,0,1-.27-.53c.8-2.53,1.47-4.77,2-6.85a.43.43,0,0,1,.52-.29.42.42,0,0,1,.3.52c-.58,2.09-1.25,4.34-2.06,6.88A.41.41,0,0,1,119.24,393.8Z" style="fill:#407BFF"></path><path d="M129.24,357.36h-.11a.41.41,0,0,1-.29-.52l6.12-22.9a.42.42,0,0,1,.52-.3.42.42,0,0,1,.3.52q-3.06,11.44-6.13,22.9A.42.42,0,0,1,129.24,357.36Z" style="fill:#407BFF"></path><path d="M161.61,320.06h-.11a.43.43,0,0,1-.3-.52l2.88-10.78a.43.43,0,0,1,.52-.3.42.42,0,0,1,.3.52L162,319.75A.42.42,0,0,1,161.61,320.06Z" style="fill:#407BFF"></path><path d="M150.3,278.58l-.11,0a.43.43,0,0,1-.3-.52l4-14.8a.42.42,0,0,1,.52-.3.42.42,0,0,1,.3.52l-4,14.8A.43.43,0,0,1,150.3,278.58Z" style="fill:#407BFF"></path><path d="M134.92,225.3l-.11,0a.42.42,0,0,1-.3-.52l.91-3.36a.41.41,0,0,1,.51-.3.42.42,0,0,1,.3.52l-.91,3.36A.42.42,0,0,1,134.92,225.3Z" style="fill:#407BFF"></path><path d="M172.78,204l-.11,0a.42.42,0,0,1-.3-.52l1.11-4a.43.43,0,0,1,.52-.29.42.42,0,0,1,.3.52l-1.11,4A.44.44,0,0,1,172.78,204Z" style="fill:#407BFF"></path><path d="M85.14,168.81a.25.25,0,0,1-.12,0,.41.41,0,0,1-.29-.52q2.16-7.72,4.34-15.45a.43.43,0,1,1,.82.23q-2.19,7.72-4.35,15.45A.41.41,0,0,1,85.14,168.81Z" style="fill:#407BFF"></path><path d="M181.52,104.66h-.11a.42.42,0,0,1-.3-.52L187,82.58a.42.42,0,0,1,.52-.3.42.42,0,0,1,.3.52l-5.88,21.55A.44.44,0,0,1,181.52,104.66Z" style="fill:#407BFF"></path><path d="M200.67,83.49l-.12,0a.42.42,0,0,1-.29-.52l2.57-9.42a.42.42,0,0,1,.82.22l-2.58,9.43A.41.41,0,0,1,200.67,83.49Z" style="fill:#407BFF"></path><path d="M213,49l-.13,0a.43.43,0,0,1-.28-.53c.84-2.73,1.46-5.55,2.07-8.28.71-3.15,1.43-6.41,2.48-9.58a.43.43,0,0,1,.81.27,97.4,97.4,0,0,0-2.46,9.49c-.61,2.75-1.25,5.58-2.09,8.35A.43.43,0,0,1,213,49Z" style="fill:#407BFF"></path><path d="M161.34,382.74h-.12a.44.44,0,0,1-.29-.53q.87-3,1.72-5.93a.42.42,0,0,1,.52-.29.43.43,0,0,1,.29.52l-1.71,5.94A.44.44,0,0,1,161.34,382.74Z" style="fill:#407BFF"></path><path d="M254.88,17.22l-.11,0a.41.41,0,0,1-.29-.52l3.28-12a.42.42,0,0,1,.82.22l-3.29,12A.42.42,0,0,1,254.88,17.22Z" style="fill:#407BFF"></path><path d="M292.52,34.19a.23.23,0,0,1-.11,0,.41.41,0,0,1-.29-.52c1.19-4.33,2.33-8.76,3.44-13,.55-2.14,1.1-4.29,1.66-6.42a.43.43,0,0,1,.52-.31.42.42,0,0,1,.3.52q-.84,3.21-1.66,6.42c-1.11,4.29-2.25,8.72-3.45,13.06A.42.42,0,0,1,292.52,34.19Z" style="fill:#407BFF"></path><path d="M331.31,269.26l-.15,0a.42.42,0,0,1-.25-.54,202.7,202.7,0,0,0,6.45-22.09c.54-2.15,1.08-4.3,1.64-6.44a.43.43,0,0,1,.52-.31.43.43,0,0,1,.3.52c-.56,2.14-1.1,4.29-1.64,6.44A201.88,201.88,0,0,1,331.7,269,.41.41,0,0,1,331.31,269.26Z" style="fill:#407BFF"></path><path d="M363.12,221.74l-.11,0a.42.42,0,0,1-.3-.52l8.11-29.7a.42.42,0,0,1,.81.22l-8.1,29.71A.43.43,0,0,1,363.12,221.74Z" style="fill:#407BFF"></path><path d="M363.36,100.61l-.11,0a.42.42,0,0,1-.3-.52l6.7-24.52a.42.42,0,1,1,.81.22l-6.69,24.53A.42.42,0,0,1,363.36,100.61Z" style="fill:#407BFF"></path><path d="M359.82,53h-.11a.42.42,0,0,1-.3-.52c2.34-8.68,4.79-17.49,7.09-25.77a.42.42,0,0,1,.52-.29.42.42,0,0,1,.3.52c-2.3,8.28-4.75,17.08-7.09,25.76A.42.42,0,0,1,359.82,53Z" style="fill:#407BFF"></path><path d="M433.22,391.61l-.12,0a.43.43,0,0,1-.29-.52q1.68-5.91,3.33-11.83a.43.43,0,0,1,.82.23q-1.65,5.91-3.33,11.83A.45.45,0,0,1,433.22,391.61Z" style="fill:#407BFF"></path><path d="M412.54,345.91h-.11a.43.43,0,0,1-.3-.52q2.89-10.75,5.75-21.53a.42.42,0,0,1,.82.21q-2.85,10.79-5.75,21.54A.42.42,0,0,1,412.54,345.91Z" style="fill:#407BFF"></path><path d="M340.36,394.36h-.11a.42.42,0,0,1-.3-.52l3.83-14.58a.42.42,0,0,1,.51-.31.43.43,0,0,1,.31.52l-3.83,14.59A.43.43,0,0,1,340.36,394.36Z" style="fill:#407BFF"></path><path d="M318.76,331.19l-.1,0a.43.43,0,0,1-.31-.52l3.86-14.57a.42.42,0,0,1,.82.22q-1.93,7.27-3.86,14.57A.43.43,0,0,1,318.76,331.19Z" style="fill:#407BFF"></path><path d="M367.17,353.89l-.11,0a.43.43,0,0,1-.3-.52c3.23-12,6.19-22.8,9-33a.42.42,0,1,1,.81.22c-2.85,10.19-5.8,21-9,33A.43.43,0,0,1,367.17,353.89Z" style="fill:#407BFF"></path><path d="M369.11,288l-.12,0a.43.43,0,0,1-.29-.52c1.73-6,3.47-12,5.16-17.69a.42.42,0,0,1,.53-.28.41.41,0,0,1,.28.52c-1.69,5.71-3.42,11.66-5.15,17.68A.45.45,0,0,1,369.11,288Z" style="fill:#407BFF"></path><path d="M391.1,258H391a.41.41,0,0,1-.31-.51c3-12.55,6.54-25.11,10-36.8a.42.42,0,0,1,.53-.29.41.41,0,0,1,.28.52c-3.41,11.69-7,24.23-9.95,36.76A.42.42,0,0,1,391.1,258Z" style="fill:#407BFF"></path><path d="M424.9,210.18h-.12a.44.44,0,0,1-.29-.53c1.36-4.63,2.72-9.26,4-13.9a.42.42,0,1,1,.81.23q-2,7-4,13.91A.44.44,0,0,1,424.9,210.18Z" style="fill:#407BFF"></path><path d="M433.14,181H433a.43.43,0,0,1-.31-.52c1.31-5,2.45-9.55,3.48-14a.44.44,0,0,1,.51-.32.43.43,0,0,1,.32.51c-1,4.5-2.18,9.1-3.49,14.07A.42.42,0,0,1,433.14,181Z" style="fill:#407BFF"></path><path d="M373.3,154.25l-.12,0a.42.42,0,0,1-.29-.52l9.57-35.08a.42.42,0,0,1,.52-.3.42.42,0,0,1,.3.52l-9.58,35.08A.42.42,0,0,1,373.3,154.25Z" style="fill:#407BFF"></path><path d="M434.47,127.85l-.11,0a.42.42,0,0,1-.3-.52l4.32-15.8a.41.41,0,0,1,.51-.3.42.42,0,0,1,.3.52l-4.31,15.8A.43.43,0,0,1,434.47,127.85Z" style="fill:#407BFF"></path><path d="M426.12,81H426a.43.43,0,0,1-.29-.52l1.55-5.68a.42.42,0,0,1,.81.22l-1.55,5.68A.41.41,0,0,1,426.12,81Z" style="fill:#407BFF"></path><path d="M402,52.45h-.11a.42.42,0,0,1-.3-.52q2.9-10.83,5.86-21.63a.42.42,0,1,1,.81.23q-3,10.8-5.85,21.62A.42.42,0,0,1,402,52.45Z" style="fill:#407BFF"></path><path d="M465.66,37.49l-.11,0a.42.42,0,0,1-.3-.52l1-3.7q2.3-8.37,4.6-16.76a.42.42,0,0,1,.52-.3.43.43,0,0,1,.29.52q-2.3,8.38-4.6,16.77l-1,3.7A.44.44,0,0,1,465.66,37.49Z" style="fill:#407BFF"></path><path d="M448.71,270.38l-.12,0a.41.41,0,0,1-.29-.52q4.23-15.4,8.45-30.81a.43.43,0,0,1,.52-.29.42.42,0,0,1,.3.52q-4.21,15.41-8.46,30.81A.43.43,0,0,1,448.71,270.38Z" style="fill:#407BFF"></path><path d="M464.37,165.81h-.11a.43.43,0,0,1-.3-.52c3.19-11.86,5.79-21.67,8.19-30.88a.42.42,0,1,1,.82.21c-2.4,9.21-5,19-8.19,30.89A.42.42,0,0,1,464.37,165.81Z" style="fill:#407BFF"></path><path d="M112.58,24.22h-.12a.42.42,0,0,1-.29-.52l2-7.2a.42.42,0,0,1,.82.22l-2,7.2A.41.41,0,0,1,112.58,24.22Z" style="fill:#407BFF"></path><path d="M434.93,23.42h-.11a.42.42,0,0,1-.29-.52l3.38-12.41a.42.42,0,1,1,.82.22l-3.39,12.41A.42.42,0,0,1,434.93,23.42Z" style="fill:#407BFF"></path><path d="M457.16,54.73h-.11a.43.43,0,0,1-.3-.52c.41-1.52.82-3.05,1.24-4.57a.42.42,0,0,1,.52-.3.43.43,0,0,1,.3.52c-.42,1.52-.84,3-1.24,4.57A.42.42,0,0,1,457.16,54.73Z" style="fill:#407BFF"></path><path d="M454.54,343.84l-.12,0a.43.43,0,0,1-.29-.52c1.81-6.28,3.7-13,5.24-19.81a.43.43,0,0,1,.51-.32.42.42,0,0,1,.32.5c-1.55,6.82-3.44,13.57-5.25,19.86A.43.43,0,0,1,454.54,343.84Z" style="fill:#407BFF"></path></g></g><g id="freepik--Character--inject-15"><path d="M308.59,188l-2.84.43a3.35,3.35,0,0,0-2.49,1.8L301,194.75a6.25,6.25,0,0,0,0,5.74l.59,1.1c4.77-.39,9.63-4.33,9.63-4.33l1.51-1a2.79,2.79,0,0,0,.94-3.86l-1.89-3A3.18,3.18,0,0,0,308.59,188Z" style="fill:#ff8b7b"></path><path d="M274.47,176.38l.49,2.07.57,2.16c.4,1.44.82,2.88,1.25,4.32.88,2.86,1.83,5.69,2.89,8.43a85,85,0,0,0,3.41,7.9,40.56,40.56,0,0,0,3.84,6.51l-6-4.33a10.21,10.21,0,0,0,4.72.1,14.21,14.21,0,0,0,4.85-2.19,25.91,25.91,0,0,0,4.9-4.52,31.72,31.72,0,0,0,2.17-2.9c.33-.5.65-1,1-1.5.14-.25.27-.51.39-.74l.16-.34c0-.06.13-.27,0-.12l22.67,14.16c-.33.49-.45.62-.65.9l-.54.66-1,1.24c-.68.8-1.37,1.57-2.08,2.32-1.41,1.5-2.9,2.9-4.45,4.28a55.45,55.45,0,0,1-10.52,7.38,43.83,43.83,0,0,1-6.36,2.74,37.71,37.71,0,0,1-7.07,1.62,34.77,34.77,0,0,1-14.6-1.31l-.34-.1a10.59,10.59,0,0,1-5.7-4.23,71.66,71.66,0,0,1-5.51-10c-1.49-3.23-2.79-6.42-4-9.58s-2.32-6.33-3.4-9.49q-.81-2.37-1.57-4.75l-1.54-4.9Z" style="fill:#407BFF"></path><path d="M257.94,198.83l.31.85,2-1.19A172.6,172.6,0,0,1,278,188.56c-.1-.29-.19-.57-.28-.86a173.3,173.3,0,0,0-17.93,10Z" style="fill:#fff"></path><path d="M307.48,199.43c-.39.57-.76,1.12-1.1,1.64a42.53,42.53,0,0,0-6,14.69c-.64,3.21-.19,5.47,1.33,6.74h0c.22-.12.45-.22.66-.34l.24-.13a4,4,0,0,1-.34-.23c-1.25-1-1.6-3-1-5.87a41.75,41.75,0,0,1,5.84-14.39c.33-.51.7-1.05,1.09-1.61s.94-1.38,1.4-2.1l-.76-.47C308.41,198.08,307.93,198.77,307.48,199.43Z" style="fill:#fff"></path><path d="M284.76,216.22c1.7.37,7.33,1.86,8.74,6a5.78,5.78,0,0,1,.07,3.44l1-.26a6.56,6.56,0,0,0-.21-3.47c-1.56-4.56-7.58-6.17-9.39-6.56a43.66,43.66,0,0,0-19.53.67c.14.27.29.54.44.81A42.64,42.64,0,0,1,284.76,216.22Z" style="fill:#fff"></path><path d="M264.33,144.92c9.16-3.16,1.34-11.61,1.34-11.61s.94,3.36-3.5,2.52,3.05-15.05-4.52-12.87C251.28,122.32,251,149.52,264.33,144.92Z" style="fill:#263238"></path><path d="M296.93,396.92c-.28,2,1.73,7.69,4.12,11.76l-12.4-9.61S290,396,296.93,396.92Z" style="fill:#407BFF"></path><path d="M213,398.29c-1.13,1.7-3.49,7-3.14,11.68-8.58-.78-6.47-6.35-5.25-13.1C204.64,396.87,207.16,394.62,213,398.29Z" style="fill:#407BFF"></path><path d="M210.16,411.14c-3.32-4.24,1.85-12.88,1.85-12.88a15.51,15.51,0,0,0-7.3-1.8C200.66,401,201.53,410.55,210.16,411.14Z" style="fill:#407BFF"></path><path d="M210.16,411.14c-3.32-4.24,1.85-12.88,1.85-12.88a15.51,15.51,0,0,0-7.3-1.8C200.66,401,201.53,410.55,210.16,411.14Z" style="opacity:0.2"></path><path d="M194.94,409.34s14.55,7.08,22.91,5.43c3.74-.73.65-5.89-7.11-5.58s-6.81-7.44-3.77-12.85c-5.92-3.16-9.59-1.71-9.59-1.71C197.23,400.42,196.7,405.71,194.94,409.34Z" style="fill:#407BFF"></path><path d="M194.88,411l11.31,4a25.45,25.45,0,0,0,8.37,1.41h4a.71.71,0,0,0,.69-.66l0-1.06a.64.64,0,0,0-.64-.66l-3.31,0a25.39,25.39,0,0,1-8.75-1.44l-11-3.91a.69.69,0,0,0-.82.48l-.3,1A.63.63,0,0,0,194.88,411Z" style="fill:#407BFF"></path><g style="opacity:0.5"><path d="M194.88,411l11.31,4a25.45,25.45,0,0,0,8.37,1.41h4a.71.71,0,0,0,.69-.66l0-1.06a.64.64,0,0,0-.64-.66l-3.31,0a25.39,25.39,0,0,1-8.75-1.44l-11-3.91a.69.69,0,0,0-.82.48l-.3,1A.63.63,0,0,0,194.88,411Z" style="fill:#fff"></path></g><path d="M302.6,408.82c-5.28-1.92-6.84-11.33-6.84-11.33s-1.93-.55-6,1.64C288.59,405,294.55,412.66,302.6,408.82Z" style="fill:#407BFF"></path><path d="M302.6,408.82c-5.28-1.92-6.84-11.33-6.84-11.33s-1.93-.55-6,1.64C288.59,405,294.55,412.66,302.6,408.82Z" style="opacity:0.2"></path><path d="M288,415l22.52-6.2c3.76-1-1.63-6.05-8.43-1.89s-11.41-2.52-11.62-8.62c-7,.31-8.27,3-8.27,3C285.19,406.25,287.58,411,288,415Z" style="fill:#407BFF"></path><path d="M288.84,416.42l22.87-6.3a.67.67,0,0,0,.48-.82l-.29-1a.68.68,0,0,0-.84-.46l-22.87,6.3a.67.67,0,0,0-.48.82l.29,1A.69.69,0,0,0,288.84,416.42Z" style="fill:#407BFF"></path><path d="M288.84,416.42l22.87-6.3a.67.67,0,0,0,.48-.82l-.29-1a.68.68,0,0,0-.84-.46l-22.87,6.3a.67.67,0,0,0-.48.82l.29,1A.69.69,0,0,0,288.84,416.42Z" style="fill:#fff;opacity:0.5"></path><path d="M249.4,280c2.54,8.33,5.72,17.49,9.72,27.37-.76,12.28,9.52,72.65,22.1,96.44,4.4-4.93,15.94-3.15,17.87-5.56-7.73-23.27-16.37-67.71-18.42-91.95s-9.06-81.16-9.06-81.16l-31.93-.43S238.88,245.29,249.4,280Z" style="fill:#263238"></path><path d="M195.28,395.88c6,2.72,18.25,4.77,19.27,2.87,1.92-11.3,22-71.12,25.12-81.42,2.43-8,7.09-26.36,9.73-37.34,6.41-26.66,13.83-55.29,13.83-55.29H234.72s-11.83,13.41-15.79,89.55C213.79,323.31,197.47,384.1,195.28,395.88Z" style="fill:#263238"></path><path d="M241.05,145.18c1.52,5.63,3.39,16-.27,19.73,0,0,2.35,6,15.75,5.22,9.78-.6,1.77-5.22,1.77-5.22-6.4-1.5-6.58-6.17-5.81-10.55Z" style="fill:#ff8b7b"></path><path d="M245.71,148.92l6.77,5.44a18.21,18.21,0,0,0-.31,3.11c-2.42-.35-5.92-3-6.36-5.5A8.5,8.5,0,0,1,245.71,148.92Z" style="opacity:0.2"></path><path d="M236.23,133.86c1.71,9.1,2.24,13,7.44,17.35,7.81,6.57,18.55,3.09,19.58-6.19.92-8.35-2-21.84-11.41-24.85A11.87,11.87,0,0,0,236.23,133.86Z" style="fill:#ff8b7b"></path><path d="M250.65,135.38c.11.77.6,1.36,1.1,1.32s.8-.69.69-1.46-.6-1.36-1.09-1.33S250.54,134.6,250.65,135.38Z" style="fill:#263238"></path><path d="M260,134.83c.11.77.6,1.36,1.1,1.33s.8-.69.69-1.46-.6-1.37-1.09-1.33S259.84,134.06,260,134.83Z" style="fill:#263238"></path><path d="M260.43,133.43l1.74-.67S261.45,134.27,260.43,133.43Z" style="fill:#263238"></path><path d="M257.55,136.28a22.79,22.79,0,0,0,3.39,4.72,3.09,3.09,0,0,1-2.61.71Z" style="fill:#ff5652"></path><path d="M254.4,144.88a7.71,7.71,0,0,0,1.28,0,.22.22,0,0,0,.19-.24.24.24,0,0,0-.26-.21,6.47,6.47,0,0,1-5.21-2,.23.23,0,0,0-.32,0,.22.22,0,0,0,0,.31A6.79,6.79,0,0,0,254.4,144.88Z" style="fill:#263238"></path><path d="M234.29,141a6.37,6.37,0,0,0,4.13,3.07c2.16.39,2.88-2.1,2-4.46-.81-2.13-2.9-4.89-4.92-4.2S233.06,139,234.29,141Z" style="fill:#ff8b7b"></path><path d="M240,128.5c5.75,2.87-1.82,11.8,3.22,12.83a2.32,2.32,0,0,0,3.09-2.58s8.25,5.37-2.79,11c-12,6.12-23.81-10.54-12.33-25.1-4.55-5.59,18.67-11.58,25.6-6.78,6.65,4.6.05,9.74-5,8.91,1.57-.74,1.77-3.32-.59-1.93S246,129,240,128.5Z" style="fill:#263238"></path><path d="M248.24,131.47a.41.41,0,0,0,.29-.18,3.34,3.34,0,0,1,2.75-1.56.42.42,0,0,0,.44-.43.5.5,0,0,0-.47-.47,4.18,4.18,0,0,0-3.49,1.93.47.47,0,0,0,.15.63A.49.49,0,0,0,248.24,131.47Z" style="fill:#263238"></path><path d="M261.72,128.84a.45.45,0,0,0,.31-.11.44.44,0,0,0,0-.63,4.78,4.78,0,0,0-3.86-1.72.42.42,0,0,0-.36.5.49.49,0,0,0,.53.4,3.79,3.79,0,0,1,3,1.39A.51.51,0,0,0,261.72,128.84Z" style="fill:#263238"></path><path d="M251.13,134l1.74-.66S252.15,134.82,251.13,134Z" style="fill:#263238"></path><path d="M277.11,220c-.09-20.44-1.49-38-1.61-41.6-.16-5-3-8.86-7.38-11.1,2.44-6.29,5.06-14,3.19-18.37-12.92-3-33.65-2.72-43.07,1.79-5.27,2.52,2.6,11.21,2.6,11.21s-4.42,1.71-1.07,5.12c-4.34,2.89-7.13,6.57-8.66,20.72-2.58,23.9-17.36,145.88-18.14,156.1,32.6,3.77,82.93-9.78,86.63-12.47C289.53,319.51,277.25,255.64,277.11,220Z" style="fill:#407BFF"></path><path d="M227.72,157.55A40.91,40.91,0,0,1,244,155.41c1.72.14,7.5.91,9.42,4.82,1.8,3.66-1,7.75-3.27,11-.39.57-.76,1.12-1.1,1.64a42.53,42.53,0,0,0-6,14.69c-.64,3.21-.19,5.47,1.33,6.74a5,5,0,0,0,3.24,1,13.8,13.8,0,0,0,2.65-.31c9.24-1.86,17.62-5.87,25.59-10.51,0-.34,0-.68-.06-1-8,4.7-16.44,8.77-25.7,10.64-1.8.36-3.82.58-5.15-.52s-1.6-3-1-5.87a41.75,41.75,0,0,1,5.84-14.39c.33-.51.7-1,1.09-1.61,2.39-3.48,5.36-7.81,3.33-11.94-2.13-4.32-8.31-5.16-10.15-5.31a41.79,41.79,0,0,0-16.71,2.23C227.44,157,227.58,157.29,227.72,157.55Z" style="fill:#fff"></path><path d="M226.1,223.38c1.76-1.12,3.52-2.24,5.28-3.34,10.53-6.58,21.83-13.15,34-14.79a20.93,20.93,0,0,1,8.37.25,11,11,0,0,1,3.15,1.42l0-1.07a12,12,0,0,0-2.89-1.21,21.91,21.91,0,0,0-8.72-.28c-12.32,1.67-23.72,8.29-34.33,14.93-1.77,1.1-3.53,2.22-5.29,3.34-3,1.93-6.1,3.88-9.22,5.76,0,.37-.09.74-.13,1.12C219.6,227.52,222.87,225.44,226.1,223.38Z" style="fill:#fff"></path><path d="M262.59,246.26a31.5,31.5,0,0,0-.81,3.11c-.31,1.57-.76,5.47,1.77,7.81,1.31,1.21,3.24,1.82,5.91,1.87a36.91,36.91,0,0,0,10.41-1.41c0-.3-.07-.6-.1-.9a36.55,36.55,0,0,1-10.29,1.42c-2.44-.05-4.19-.58-5.32-1.64-2.21-2-1.79-5.56-1.51-7,.2-1,.5-2,.79-3a23.22,23.22,0,0,0,1-4.72,12.31,12.31,0,0,0-4-9.95c-5.75-5.17-14-3-21.4-.24-2.38.9-4.79,1.87-7.13,2.8a176.41,176.41,0,0,1-17,6.11c0,.32-.08.64-.11,1a177.2,177.2,0,0,0,17.46-6.24c2.33-.93,4.74-1.9,7.12-2.79,7.1-2.69,15.09-4.78,20.48.07a11.37,11.37,0,0,1,3.67,9.21A22.73,22.73,0,0,1,262.59,246.26Z" style="fill:#fff"></path><path d="M233.81,289.93l.25-.57c.65-1.45,1.28-2.95,1.92-4.47,3.28-7.77,6.68-15.81,12.66-21.42,1.79-1.67,3.41-2.51,5-2.55,3-.09,5.16,2.74,6,3.95.56.87,1.06,1.81,1.55,2.72a23.33,23.33,0,0,0,2.55,4.1,12.32,12.32,0,0,0,9.78,4.36,12.52,12.52,0,0,0,8.27-3.69c-.05-.37-.09-.74-.14-1.11a12,12,0,0,1-8.16,3.91,11.39,11.39,0,0,1-9.06-4,23.39,23.39,0,0,1-2.46-4c-.49-.93-1-1.89-1.58-2.79-.88-1.33-3.28-4.46-6.73-4.35-1.77.05-3.59,1-5.54,2.79-6.12,5.73-9.55,13.86-12.87,21.73-.64,1.51-1.27,3-1.91,4.45l-.25.57c-3.49,7.91-7.83,17.76-15.74,22a8.4,8.4,0,0,1-7.5.62,11,11,0,0,1-3-2.24c0,.37-.08.74-.13,1.11a11.27,11.27,0,0,0,2.75,1.94,9.32,9.32,0,0,0,8.3-.64C225.86,308,230.27,298,233.81,289.93Z" style="fill:#fff"></path><path d="M287.37,312.11c-2.22,2.22-4.67,3.89-7.33,4.32-5.38.87-6.74-4-8-8.79a21.52,21.52,0,0,0-2.1-5.71,9.89,9.89,0,0,0-7-4.67c-5.59-.86-12.13,2.6-16,5.82-11.3,9.35-21.72,22.22-30.15,37.21-.79,1.39-1.54,2.81-2.28,4.23h1c.67-1.28,1.35-2.54,2-3.79,8.38-14.9,18.73-27.68,30-37,3.75-3.11,10-6.45,15.32-5.63a9,9,0,0,1,6.37,4.27,21.17,21.17,0,0,1,2,5.47c1.33,4.89,2.84,10.43,9,9.43a14.39,14.39,0,0,0,7.35-4.11C287.48,312.84,287.42,312.48,287.37,312.11Z" style="fill:#fff"></path><path d="M219.37,203.15c-1.71,14.67-4.23,35.9-6.79,57.46,2.38.82,5.18,1.63,8.46,2.45a522,522,0,0,1,9-75.05Z" style="opacity:0.2"></path><path d="M236.56,250.67c-2.38,6.23-10.4,11.06-14.33,11.28C228.84,252.77,236.56,250.67,236.56,250.67Z" style="opacity:0.2"></path><path d="M269.52,330.16c0-.57-3.75-57.37-3-84.6.8-27.81-2.11-73.7-3.55-77.17l-.06-.13,0-.13A69.52,69.52,0,0,0,264.45,150l.89,0a69.69,69.69,0,0,1-1.47,18.25c1.48,4.42,4.37,49.83,3.57,77.41-.78,27.19,2.93,83.94,3,84.51Z" style="opacity:0.2"></path><path d="M241.47,187.32l-.88.72-1,.82c-.64.56-1.28,1.14-1.91,1.73-1.27,1.17-2.52,2.37-3.73,3.59a90.69,90.69,0,0,0-6.79,7.61,56.72,56.72,0,0,0-5.35,7.86,21.3,21.3,0,0,0-2.61,6.83l.17-1.93a22,22,0,0,0,.5,3.85,32.72,32.72,0,0,0,1.27,4.21,50.43,50.43,0,0,0,4.39,8.75,77.65,77.65,0,0,0,6.17,8.47c1.14,1.36,2.34,2.68,3.56,4,.61.64,1.23,1.27,1.84,1.88l.93.87.46.41a3.33,3.33,0,0,0,.34.29l-19.23,18.56c-.32-.36-.47-.55-.68-.8l-.56-.7-1.06-1.37c-.69-.9-1.37-1.8-2-2.7-1.32-1.8-2.58-3.64-3.81-5.5a123.92,123.92,0,0,1-6.89-11.65A82.45,82.45,0,0,1,199.14,230a50.78,50.78,0,0,1-2.46-15.45v-.19a9.88,9.88,0,0,1,.16-1.74,37.87,37.87,0,0,1,2.36-7.68,55.43,55.43,0,0,1,3.17-6.36,91.84,91.84,0,0,1,7.39-10.66c2.61-3.26,5.3-6.33,8.08-9.28q2.07-2.22,4.22-4.35l2.19-2.13,1.12-1.08,1.23-1.14Z" style="fill:#407BFF"></path><path d="M221.25,175.12a6.18,6.18,0,0,1,1,1.42c1.8,3.65-1,7.74-3.27,11-.39.57-.76,1.12-1.1,1.64a42.53,42.53,0,0,0-6,14.69c-.64,3.21-.19,5.47,1.33,6.74a5,5,0,0,0,3.24,1,13.8,13.8,0,0,0,2.65-.31c.7-.14,1.4-.31,2.09-.47.18-.35.36-.7.55-1.05-.93.23-1.87.45-2.82.64-1.79.37-3.81.59-5.14-.51s-1.6-3-1-5.88a41.78,41.78,0,0,1,5.84-14.38c.33-.51.7-1.05,1.09-1.61,2.39-3.48,5.36-7.81,3.33-11.94a7,7,0,0,0-1.16-1.65C221.66,174.69,221.46,174.91,221.25,175.12Z" style="fill:#fff"></path><path d="M205.82,210.05c-1-3-4-4.71-6.38-5.65l-.24.54c0,.09-.07.19-.11.28,2.25.86,5,2.43,5.89,5.12,1.32,3.86-2,7.56-4.64,10.53-.46.51-.9,1-1.3,1.48s-.95,1.17-1.41,1.77c.08.39.17.78.25,1.17.59-.81,1.2-1.6,1.84-2.36.39-.47.83-1,1.28-1.47C203.81,218.32,207.31,214.4,205.82,210.05Z" style="fill:#fff"></path><path d="M227.83,234.73c-7.53,3.38-15.29,6.39-23.43,7.92l.21.44c.07.13.15.26.21.39,8.2-1.57,16-4.61,23.53-8C228.17,235.23,228,235,227.83,234.73Z" style="fill:#fff"></path><path d="M309.09,237.66a12.85,12.85,0,0,1-11.6-7.31,1.35,1.35,0,0,1,2.44-1.16,10.13,10.13,0,0,0,18.28-8.72L241.33,59.12A1.35,1.35,0,0,1,243.77,58l76.88,161.35a12.83,12.83,0,0,1-11.56,18.35Z" style="fill:#263238"></path><path d="M246.16,66.12c49-23.36,99.49-19.86,108.22-1.54L176.8,149.2C168.06,130.87,197.12,89.49,246.16,66.12Z" style="fill:#407BFF"></path><path d="M252.12,63.42c-1.57,6-4.53,11.82-11.37,13.67-3.69,1-8.33.54-11.06,3A10.6,10.6,0,0,0,227,84.38c-2.55,6.81-1.58,14.79-.45,22.17.92,6,2.13,12,2.28,17.84l-13.35,6.37a27,27,0,0,1-1.9-2.43c-1.65-2.36-3.58-6.12-7.16-6.44-2.7-.24-4.92,1.66-6.14,3.35-3,4.2-3.8,9.23-3.66,14.5l-19.85,9.46c-8.73-18.33,20.33-59.71,69.37-83.08C248.15,65.17,250.13,64.27,252.12,63.42Z" style="fill:#fff;opacity:0.2"></path><path d="M354.37,64.58,246.85,115.81c-.67-4.09-1-8.25.17-11.93a4.23,4.23,0,0,1,2.16-2.75c1.56-.69,3.67-.14,5.36.72s3.21,2,5,2.73a9.47,9.47,0,0,0,7.23,0c4.58-2.09,4.25-7.55,3.67-11.68-1-7-2.65-14.12-1.85-20.94s4.28-12.9,11.54-15.65c2.79-1.06,6-1.57,8.44-3a9.86,9.86,0,0,0,1.87-1.41C322.22,46.3,348.32,51.88,354.37,64.58Z" style="fill:#fff;opacity:0.2"></path><path d="M330.16,48h-.09a.37.37,0,0,1-.27-.44l.66-2.77a.36.36,0,0,1,.44-.27.38.38,0,0,1,.27.44l-.66,2.77A.36.36,0,0,1,330.16,48Z" style="fill:#407BFF"></path><path d="M331.94,48.93a.39.39,0,0,1-.27-.11.37.37,0,0,1,0-.52l1.56-1.45a.36.36,0,0,1,.49.53l-1.55,1.45A.35.35,0,0,1,331.94,48.93Z" style="fill:#407BFF"></path><path d="M328.17,48a.35.35,0,0,1-.34-.24l-.58-1.55a.35.35,0,0,1,.21-.47.36.36,0,0,1,.47.21l.58,1.56a.36.36,0,0,1-.21.47A.3.3,0,0,1,328.17,48Z" style="fill:#407BFF"></path><path d="M172.6,131.12a.29.29,0,0,1-.16,0l-2.57-1.23a.37.37,0,0,1,.32-.66l2.56,1.23a.37.37,0,0,1,.18.49A.39.39,0,0,1,172.6,131.12Z" style="fill:#407BFF"></path><path d="M173.85,129.58a.37.37,0,0,1-.32-.19l-1.08-1.83a.37.37,0,0,1,.63-.37l1.08,1.83a.36.36,0,0,1-.13.5A.32.32,0,0,1,173.85,129.58Z" style="fill:#407BFF"></path><path d="M170.52,133.29a.36.36,0,0,1-.05-.72l1.64-.24a.37.37,0,0,1,.11.73l-1.65.23Z" style="fill:#407BFF"></path><path d="M267.93,55.27h0a.31.31,0,0,1-.31-.31l0-2.37a.3.3,0,0,1,.31-.3h0a.3.3,0,0,1,.3.3V55A.32.32,0,0,1,267.93,55.27Z" style="fill:#407BFF"></path><path d="M269.54,55.66a.34.34,0,0,1-.17,0,.31.31,0,0,1-.08-.43l1-1.46a.31.31,0,0,1,.42-.09.32.32,0,0,1,.08.43l-1,1.47A.31.31,0,0,1,269.54,55.66Z" style="fill:#407BFF"></path><path d="M266.31,55.64a.31.31,0,0,1-.25-.14l-.76-1.16a.29.29,0,0,1,.08-.42.32.32,0,0,1,.43.09l.76,1.16a.31.31,0,0,1-.09.42A.34.34,0,0,1,266.31,55.64Z" style="fill:#407BFF"></path><path d="M212.37,81a.35.35,0,0,1-.29-.15l-1.69-2.29a.37.37,0,0,1,.59-.44l1.69,2.3a.37.37,0,0,1-.08.51A.36.36,0,0,1,212.37,81Z" style="fill:#407BFF"></path><path d="M214.2,80.23a.36.36,0,0,1-.36-.35l-.1-2.12a.37.37,0,0,1,.35-.38.36.36,0,0,1,.38.35l.1,2.12a.36.36,0,0,1-.35.38Z" style="fill:#407BFF"></path><path d="M211.08,82.52a.32.32,0,0,1-.13,0l-1.56-.57a.35.35,0,0,1-.22-.46.37.37,0,0,1,.47-.22l1.56.56a.37.37,0,0,1,.22.47A.35.35,0,0,1,211.08,82.52Z" style="fill:#407BFF"></path><path d="M295,71.19h-.08a.36.36,0,0,1-.27-.44l.69-2.76a.37.37,0,1,1,.71.18l-.69,2.76A.37.37,0,0,1,295,71.19Z" style="fill:#fff"></path><path d="M296.74,72.11a.36.36,0,0,1-.27-.12.37.37,0,0,1,0-.52L298.07,70a.37.37,0,0,1,.49.55L297,72A.35.35,0,0,1,296.74,72.11Z" style="fill:#fff"></path><path d="M293,71.17a.39.39,0,0,1-.35-.25l-.56-1.56a.37.37,0,0,1,.69-.25l.56,1.57a.35.35,0,0,1-.22.46Z" style="fill:#fff"></path><path d="M206.34,102.57a.36.36,0,0,1-.31-.16L204.45,100a.38.38,0,0,1,.1-.51.37.37,0,0,1,.51.11l1.58,2.36a.37.37,0,0,1-.1.51A.39.39,0,0,1,206.34,102.57Z" style="fill:#fff"></path><path d="M208.2,101.88h0a.37.37,0,0,1-.37-.37V99.38a.36.36,0,0,1,.36-.36h0a.36.36,0,0,1,.37.37v2.12A.36.36,0,0,1,208.2,101.88Z" style="fill:#fff"></path><path d="M205,104a.32.32,0,0,1-.14,0l-1.54-.64a.37.37,0,0,1,.28-.68l1.54.64a.37.37,0,0,1,.19.48A.35.35,0,0,1,205,104Z" style="fill:#fff"></path></g><g id="freepik--Hydrant--inject-15"><path d="M138.41,306.08a4.87,4.87,0,1,1-4.87-4.86A4.87,4.87,0,0,1,138.41,306.08Z" style="fill:#407BFF"></path><path d="M138.41,306.08a4.87,4.87,0,1,1-4.87-4.86A4.87,4.87,0,0,1,138.41,306.08Z" style="opacity:0.1"></path><circle cx="133.54" cy="321.65" r="17.35" transform="translate(-210.19 377.72) rotate(-76.72)" style="fill:#407BFF"></circle><path d="M152.19,408.51h-37.3a4.27,4.27,0,0,0-4.07,3l-1.51,4.76h48.47l-1.52-4.76A4.26,4.26,0,0,0,152.19,408.51Z" style="fill:#407BFF"></path><rect x="114.88" y="326.18" width="37.33" height="82.33" style="fill:#407BFF"></rect><polygon points="152.21 337.1 114.88 341.99 114.88 326.18 152.21 326.18 152.21 337.1" style="opacity:0.1"></polygon><rect x="152.21" y="347.88" width="5" height="32.69" transform="translate(309.42 728.46) rotate(180)" style="fill:#407BFF"></rect><rect x="152.21" y="347.88" width="5" height="32.69" transform="translate(309.42 728.46) rotate(180)" style="opacity:0.1"></rect><path d="M161.22,378.79h0V349.66h0a2.42,2.42,0,0,1,2.41,2.42v24.3A2.41,2.41,0,0,1,161.22,378.79Z" style="fill:#407BFF"></path><path d="M159.21,385.71h0a2,2,0,0,1-2-2v-39a2,2,0,0,1,2-2h0a2,2,0,0,1,2,2v39A2,2,0,0,1,159.21,385.71Z" style="fill:#407BFF"></path><rect x="110.13" y="358.06" width="4.75" height="12.34" style="fill:#407BFF"></rect><rect x="110.13" y="358.06" width="4.75" height="12.34" style="opacity:0.1"></rect><path d="M108.13,380.78h0a2,2,0,0,0,2-2v-29.1a2,2,0,0,0-2-2h0a2,2,0,0,0-2,2v29.1A2,2,0,0,0,108.13,380.78Z" style="fill:#407BFF"></path><path d="M154.21,320.17H112.88a3,3,0,0,0-3,3h0a3,3,0,0,0,3,3h41.33a3,3,0,0,0,3-3h0A3,3,0,0,0,154.21,320.17Z" style="fill:#407BFF"></path><path d="M154.21,320.17H112.88a3,3,0,0,0-3,3h0a3,3,0,0,0,3,3h41.33a3,3,0,0,0,3-3h0A3,3,0,0,0,154.21,320.17Z" style="fill:#fff;opacity:0.30000000000000004"></path><path d="M133.54,404.81h0a1.93,1.93,0,0,1-1.93-1.93V331.82a1.94,1.94,0,0,1,1.93-1.94h0a1.94,1.94,0,0,1,1.94,1.94v71.06A1.93,1.93,0,0,1,133.54,404.81Z" style="opacity:0.1"></path><path d="M143.94,404.81h0a1.92,1.92,0,0,1-1.93-1.93V331.82a1.93,1.93,0,0,1,1.93-1.94h0a1.93,1.93,0,0,1,1.93,1.94v71.06A1.92,1.92,0,0,1,143.94,404.81Z" style="opacity:0.1"></path><path d="M123.15,404.81h0a1.93,1.93,0,0,1-1.94-1.93V331.82a1.94,1.94,0,0,1,1.94-1.94h0a1.94,1.94,0,0,1,1.93,1.94v71.06A1.93,1.93,0,0,1,123.15,404.81Z" style="opacity:0.1"></path></g><g id="freepik--Puddles--inject-15"><g style="opacity:0.4"><path d="M263.8,415.2c-1.95.14-4.17.23-6.52.26-.84,0-1.71,0-2.58,0-1.47,0-3,0-4.47-.09-2.87-.11-5.61-.19-8.09-.27-2.95-.11-5.53-.25-7.57-.52-.28,0-.66-.11-1.09-.2a24.77,24.77,0,0,1-2.78-.8c-1-.37-1.58-.76-1-1a13.11,13.11,0,0,1,1.74-.5c1-.22,2.18-.42,3.5-.6a87.65,87.65,0,0,1,9.38-.67c2.12-.05,4.16,0,5.87.12,2.53.2,4.71.29,6.63.35l2.55.07c2.47.06,4.46.1,6.22.32a14.51,14.51,0,0,1,5.05,1.48C272.47,414.06,269.19,414.83,263.8,415.2Z" style="fill:#407BFF"></path><path d="M237.85,418.64c-.16.38-1.69.68-5.37.67l-1.54,0c-1.21,0-2.27-.09-3.09-.18-1.15-.13-1.83-.3-1.75-.49s.94-.37,2.25-.49c.91-.08,2-.14,3.28-.17h1.43C236.74,418,238,418.26,237.85,418.64Z" style="fill:#407BFF"></path><path d="M256.86,411.28l-2.16,4.18c-1.47,0-3,0-4.47-.09-2.87-.11-5.61-.19-8.09-.27l2.22-4.29c2.12-.05,4.16,0,5.87.12C252.76,411.13,254.94,411.22,256.86,411.28Z" style="fill:#fff;opacity:0.5"></path><path d="M265.63,411.67l-1.83,3.53c-1.95.14-4.17.23-6.52.26l2.13-4.11C261.88,411.41,263.87,411.45,265.63,411.67Z" style="fill:#fff;opacity:0.5"></path><path d="M231.63,418l-.69,1.33c-1.21,0-2.27-.09-3.09-.18l.5-1C229.26,418.05,230.39,418,231.63,418Z" style="fill:#fff;opacity:0.5"></path><path d="M235,411.48l-1.5,2.9a24.77,24.77,0,0,1-2.78-.8l.78-1.5C232.47,411.86,233.66,411.66,235,411.48Z" style="fill:#fff;opacity:0.5"></path></g><g style="opacity:0.4"><path d="M363.42,411.45c-33.16,0-55.88,4.73-30.78,7.64s31.83,0,29.26-2.51,49.39,0,37.34-3.3C387.45,410.05,373.26,411.44,363.42,411.45Z" style="fill:#407BFF"></path><g style="opacity:0.5"><path d="M370.25,411.31l-2.15,4.17c3.17-.14,7.21-.19,11.39-.21l2.12-4.1C377.67,411.1,373.81,411.21,370.25,411.31Z" style="fill:#fff"></path><path d="M343.24,420.06c2.27.14,4.31.22,6.15.24l4.5-8.72c-2.21.06-4.35.16-6.39.25Z" style="fill:#fff"></path><path d="M333,419.14q3.17.36,5.94.6l3.95-7.63c-2.34.16-4.53.34-6.55.55Z" style="fill:#fff"></path></g></g></g></svg>